<svg width="140" height="32" viewBox="0 0 140 32" fill="none" xmlns="http://www.w3.org/2000/svg">
<path d="M0.013916 9.14157V18.2831L18.2971 0H9.15549L0.013916 9.14157Z" fill="white"/>
<path d="M4.5862 31.997H13.7278L0.013916 18.2831V27.4247L4.5862 31.997Z" fill="white"/>
<path d="M27.4416 0H18.3L32.0139 13.7139V4.92377L27.4416 0Z" fill="white"/>
<path d="M32.0109 22.8554V13.7138L13.7278 31.9969H22.8694L32.0109 22.8554Z" fill="white"/>
<path d="M22.8713 4.57159L4.58582 22.8571L9.15718 27.4284L27.4427 9.14295L22.8713 4.57159Z" fill="white"/>
<path d="M47.0139 24.5785V7.46652L61.4619 7.41852C63.3659 7.41852 64.7739 7.81852 65.6859 8.61852C66.6139 9.40252 67.0779 10.5865 67.0779 12.1705C67.0779 13.7545 66.5499 14.9145 65.4939 15.6505C66.1979 16.0345 66.7179 16.5465 67.0539 17.1865C67.3899 17.8105 67.5579 18.6185 67.5579 19.6105C67.5579 21.2265 67.0939 22.4585 66.1659 23.3065C65.2539 24.1385 63.8459 24.5545 61.9419 24.5545L47.0139 24.5785ZM61.0059 10.4905H50.8539V14.3305H61.0059C62.4619 14.3305 63.1899 13.6745 63.1899 12.3625C63.1899 11.1145 62.4619 10.4905 61.0059 10.4905ZM61.4859 17.4025H50.8539V21.4825H61.4859C62.9419 21.4825 63.6699 20.7945 63.6699 19.4185C63.6699 18.0745 62.9419 17.4025 61.4859 17.4025Z" fill="white"/>
<path d="M70.1936 24.5785V7.41852H74.0336V24.5785H70.1936Z" fill="white"/>
<path d="M77.3889 24.5785V7.46652H81.2289V14.4505H86.9409L92.5809 7.46652H97.3569L90.3009 16.0105L97.3569 24.5785H92.5809L86.9169 17.5705H81.2289V24.5785H77.3889Z" fill="white"/>
<path d="M99.2795 24.5785V7.46652H103.12V14.4505H108.832L114.472 7.46652H119.248L112.192 16.0105L119.248 24.5785H114.472L108.808 17.5705H103.12V24.5785H99.2795Z" fill="white"/>
<path d="M121.17 24.5785V7.41852H139.986V10.5385H125.01V14.3305H138.594V17.4505H125.01V21.4585H139.986V24.5785H121.17Z" fill="white"/>
</svg>
